solid 3DskrivarenV3_delar
facet normal 1.5837331446277858e-13 -4.517872413967341e-15 1.0
  outer loop
    vertex 269.8441196443046 60.11557969041711 28.038600290490045
    vertex 268.64111964430475 61.1155796904171 28.03860029049019
    vertex 262.6991196443054 60.115579690417185 28.038600290491132
  endloop
endfacet
facet normal 1.5837331446277858e-13 -4.517872413967341e-15 1.0
  outer loop
    vertex 268.64111964430475 61.1155796904171 28.03860029049019
    vertex 269.8441196443046 60.11557969041711 28.038600290490045
    vertex 269.84411964430467 83.11557969041878 28.038600290490084
  endloop
endfacet
facet normal 1.5837331446277858e-13 -4.517872413967341e-15 1.0
  outer loop
    vertex 268.64111964430475 61.1155796904171 28.03860029049019
    vertex 269.84411964430467 83.11557969041878 28.038600290490084
    vertex 268.6411196443048 82.11557969041878 28.038600290490187
  endloop
endfacet
facet normal 1.5837331446277858e-13 -4.517872413967341e-15 1.0
  outer loop
    vertex 268.6411196443048 82.11557969041878 28.038600290490187
    vertex 269.84411964430467 83.11557969041878 28.038600290490084
    vertex 263.9021196443055 82.11557969041885 28.038600290490937
  endloop
endfacet
facet normal 1.5837331446277858e-13 -4.517872413967341e-15 1.0
  outer loop
    vertex 262.6991196443054 60.115579690417185 28.038600290491132
    vertex 263.9021196443055 61.115579690417185 28.038600290490756
    vertex 262.6991196443053 83.11557969041885 28.038600290491313
  endloop
endfacet
facet normal 1.5837331446277858e-13 -4.517872413967341e-15 1.0
  outer loop
    vertex 263.9021196443055 61.115579690417185 28.038600290490756
    vertex 262.6991196443054 60.115579690417185 28.038600290491132
    vertex 268.64111964430475 61.1155796904171 28.03860029049019
  endloop
endfacet
facet normal 1.5837331446277858e-13 -4.517872413967341e-15 1.0
  outer loop
    vertex 262.6991196443053 83.11557969041885 28.038600290491313
    vertex 263.9021196443055 61.115579690417185 28.038600290490756
    vertex 263.9021196443055 82.11557969041885 28.038600290490937
  endloop
endfacet
facet normal 1.5837331446277858e-13 -4.517872413967341e-15 1.0
  outer loop
    vertex 262.6991196443053 83.11557969041885 28.038600290491313
    vertex 263.9021196443055 82.11557969041885 28.038600290490937
    vertex 269.84411964430467 83.11557969041878 28.038600290490084
  endloop
endfacet
facet normal -4.559796078636274e-16 1.0 -4.9127971595241475e-15
  outer loop
    vertex 279.5941196443012 83.11557969041877 12.438600290487972
    vertex 262.6991196443053 83.11557969041885 28.038600290491313
    vertex 269.84411964430467 83.11557969041878 28.038600290490084
  endloop
endfacet
facet normal -4.559796078636274e-16 1.0 -4.9127971595241475e-15
  outer loop
    vertex 262.6991196443053 83.11557969041885 28.038600290491313
    vertex 279.5941196443012 83.11557969041877 12.438600290487972
    vertex 264.594119644303 83.11557969041873 12.438600290490587
  endloop
endfacet
facet normal 0.9941694398197212 -1.4159534640420363e-15 0.10782914693412957
  outer loop
    vertex 263.9021196443055 82.11557969041885 28.038600290490937
    vertex 265.59411964430296 64.11557969041704 12.438600290490342
    vertex 265.594119644303 82.11557969041873 12.438600290490363
  endloop
endfacet
facet normal 0.9941694398197212 -1.4159534640420363e-15 0.10782914693412957
  outer loop
    vertex 265.59411964430296 64.11557969041704 12.438600290490342
    vertex 263.9021196443055 82.11557969041885 28.038600290490937
    vertex 263.9021196443055 61.115579690417185 28.038600290490756
  endloop
endfacet
facet normal 2.883804306463844e-14 0.982006446980649 0.18884739365011627
  outer loop
    vertex 278.5941196443012 64.11557969041709 12.438600290488251
    vertex 263.9021196443055 61.115579690417185 28.038600290490756
    vertex 268.64111964430475 61.1155796904171 28.03860029049019
  endloop
endfacet
facet normal 2.883804306463844e-14 0.982006446980649 0.18884739365011627
  outer loop
    vertex 263.9021196443055 61.115579690417185 28.038600290490756
    vertex 278.5941196443012 64.11557969041709 12.438600290488251
    vertex 265.59411964430296 64.11557969041704 12.438600290490342
  endloop
endfacet
facet normal -0.8430311770659827 1.432085414469844e-15 -0.5378646990598507
  outer loop
    vertex 278.5941196443012 64.11557969041709 12.438600290488251
    vertex 268.6411196443048 82.11557969041878 28.038600290490187
    vertex 278.5941196443012 82.11557969041877 12.43860029048825
  endloop
endfacet
facet normal -0.8430311770659827 1.432085414469844e-15 -0.5378646990598507
  outer loop
    vertex 268.6411196443048 82.11557969041878 28.038600290490187
    vertex 278.5941196443012 64.11557969041709 12.438600290488251
    vertex 268.64111964430475 61.1155796904171 28.03860029049019
  endloop
endfacet
facet normal 1.594890559265119e-15 -1.0 5.157186527619871e-15
  outer loop
    vertex 263.9021196443055 82.11557969041885 28.038600290490937
    vertex 278.5941196443012 82.11557969041877 12.43860029048825
    vertex 268.6411196443048 82.11557969041878 28.038600290490187
  endloop
endfacet
facet normal 1.594890559265119e-15 -1.0 5.157186527619871e-15
  outer loop
    vertex 278.5941196443012 82.11557969041877 12.43860029048825
    vertex 263.9021196443055 82.11557969041885 28.038600290490937
    vertex 265.594119644303 82.11557969041873 12.438600290490363
  endloop
endfacet
facet normal 1.594890559265119e-15 -1.0 5.157186527619871e-15
  outer loop
    vertex 278.5941196443012 82.11557969041877 12.43860029048825
    vertex 265.594119644303 82.11557969041873 12.438600290490363
    vertex 278.59411964430103 82.11557969041877 11.43860029048825
  endloop
endfacet
facet normal 1.594890559265119e-15 -1.0 5.157186527619871e-15
  outer loop
    vertex 278.59411964430103 82.11557969041877 11.43860029048825
    vertex 265.594119644303 82.11557969041873 12.438600290490363
    vertex 265.59411964430285 82.11557969041873 11.438600290490418
  endloop
endfacet
facet normal -0.9927026513405222 -3.3509659424056093e-15 -0.12058791822358347
  outer loop
    vertex 262.6991196443054 60.115579690417185 28.038600290491132
    vertex 264.594119644303 83.11557969041873 12.438600290490587
    vertex 264.594119644303 63.11557969041704 12.438600290490502
  endloop
endfacet
facet normal -0.9927026513405222 -3.3509659424056093e-15 -0.12058791822358347
  outer loop
    vertex 264.594119644303 83.11557969041873 12.438600290490587
    vertex 262.6991196443054 60.115579690417185 28.038600290491132
    vertex 262.6991196443053 83.11557969041885 28.038600290491313
  endloop
endfacet
facet normal -2.969846590872294e-14 -0.9820064469806492 -0.18884739365011527
  outer loop
    vertex 262.6991196443054 60.115579690417185 28.038600290491132
    vertex 279.59411964430114 63.115579690417086 12.438600290488083
    vertex 269.8441196443046 60.11557969041711 28.038600290490045
  endloop
endfacet
facet normal -2.969846590872294e-14 -0.9820064469806492 -0.18884739365011527
  outer loop
    vertex 279.59411964430114 63.115579690417086 12.438600290488083
    vertex 262.6991196443054 60.115579690417185 28.038600290491132
    vertex 264.594119644303 63.11557969041704 12.438600290490502
  endloop
endfacet
facet normal 0.8479983040052028 -7.580694262796647e-16 0.5299989400029963
  outer loop
    vertex 269.84411964430467 83.11557969041878 28.038600290490084
    vertex 279.59411964430114 63.115579690417086 12.438600290488083
    vertex 279.5941196443012 83.11557969041877 12.438600290487972
  endloop
endfacet
facet normal 0.8479983040052028 -7.580694262796647e-16 0.5299989400029963
  outer loop
    vertex 279.59411964430114 63.115579690417086 12.438600290488083
    vertex 269.84411964430467 83.11557969041878 28.038600290490084
    vertex 269.8441196443046 60.11557969041711 28.038600290490045
  endloop
endfacet
facet normal -1.0 -8.547080273397668e-16 1.3744561044859438e-13
  outer loop
    vertex 278.5941196443012 64.11557969041709 12.438600290488251
    vertex 278.59411964430103 82.11557969041877 11.43860029048825
    vertex 278.5941196443011 64.11557969041709 11.43860029048824
  endloop
endfacet
facet normal -1.0 -8.547080273397668e-16 1.3744561044859438e-13
  outer loop
    vertex 278.59411964430103 82.11557969041877 11.43860029048825
    vertex 278.5941196443012 64.11557969041709 12.438600290488251
    vertex 278.5941196443012 82.11557969041877 12.43860029048825
  endloop
endfacet
facet normal -1.6342482922482304e-13 1.419311916457448e-15 -1.0
  outer loop
    vertex 262.59411964430285 61.11557969041704 11.438600290490829
    vertex 265.59411964430285 64.11557969041704 11.438600290490342
    vertex 281.59411964430103 61.11557969041709 11.438600290487773
  endloop
endfacet
facet normal -1.6342482922482304e-13 1.419311916457448e-15 -1.0
  outer loop
    vertex 265.59411964430285 64.11557969041704 11.438600290490342
    vertex 262.59411964430285 61.11557969041704 11.438600290490829
    vertex 262.59411964430285 85.11557969041871 11.43860029049093
  endloop
endfacet
facet normal -1.6342482922482304e-13 1.419311916457448e-15 -1.0
  outer loop
    vertex 265.59411964430285 64.11557969041704 11.438600290490342
    vertex 262.59411964430285 85.11557969041871 11.43860029049093
    vertex 265.59411964430285 82.11557969041873 11.438600290490418
  endloop
endfacet
facet normal -1.6342482922482304e-13 1.419311916457448e-15 -1.0
  outer loop
    vertex 265.59411964430285 82.11557969041873 11.438600290490418
    vertex 262.59411964430285 85.11557969041871 11.43860029049093
    vertex 278.59411964430103 82.11557969041877 11.43860029048825
  endloop
endfacet
facet normal -1.6342482922482304e-13 1.419311916457448e-15 -1.0
  outer loop
    vertex 281.59411964430103 61.11557969041709 11.438600290487773
    vertex 278.5941196443011 64.11557969041709 11.43860029048824
    vertex 281.59411964430103 85.11557969041876 11.438600290487745
  endloop
endfacet
facet normal -1.6342482922482304e-13 1.419311916457448e-15 -1.0
  outer loop
    vertex 278.5941196443011 64.11557969041709 11.43860029048824
    vertex 281.59411964430103 61.11557969041709 11.438600290487773
    vertex 265.59411964430285 64.11557969041704 11.438600290490342
  endloop
endfacet
facet normal -1.6342482922482304e-13 1.419311916457448e-15 -1.0
  outer loop
    vertex 281.59411964430103 85.11557969041876 11.438600290487745
    vertex 278.5941196443011 64.11557969041709 11.43860029048824
    vertex 278.59411964430103 82.11557969041877 11.43860029048825
  endloop
endfacet
facet normal -1.6342482922482304e-13 1.419311916457448e-15 -1.0
  outer loop
    vertex 281.59411964430103 85.11557969041876 11.438600290487745
    vertex 278.59411964430103 82.11557969041877 11.43860029048825
    vertex 262.59411964430285 85.11557969041871 11.43860029049093
  endloop
endfacet
facet normal -2.79162439153942e-15 1.0 2.156548499647941e-28
  outer loop
    vertex 278.5941196443011 64.11557969041709 11.43860029048824
    vertex 265.59411964430296 64.11557969041704 12.438600290490342
    vertex 278.5941196443012 64.11557969041709 12.438600290488251
  endloop
endfacet
facet normal -2.79162439153942e-15 1.0 2.156548499647941e-28
  outer loop
    vertex 265.59411964430296 64.11557969041704 12.438600290490342
    vertex 278.5941196443011 64.11557969041709 11.43860029048824
    vertex 265.59411964430285 64.11557969041704 11.438600290490342
  endloop
endfacet
facet normal 1.0 1.3958121957696611e-15 -1.6342482922482304e-13
  outer loop
    vertex 281.59411964430114 85.11557969041876 12.438600290487745
    vertex 281.59411964430103 61.11557969041709 11.438600290487773
    vertex 281.59411964430103 85.11557969041876 11.438600290487745
  endloop
endfacet
facet normal 1.0 1.3958121957696611e-15 -1.6342482922482304e-13
  outer loop
    vertex 281.59411964430103 61.11557969041709 11.438600290487773
    vertex 281.59411964430114 85.11557969041876 12.438600290487745
    vertex 281.5941196443012 61.11557969041709 12.438600290487777
  endloop
endfacet
facet normal -1.0 -1.3958121957696457e-15 1.6342482922482304e-13
  outer loop
    vertex 262.5941196443031 61.11557969041704 12.438600290490834
    vertex 262.59411964430285 85.11557969041871 11.43860029049093
    vertex 262.59411964430285 61.11557969041704 11.438600290490829
  endloop
endfacet
facet normal -1.0 -1.3958121957696457e-15 1.6342482922482304e-13
  outer loop
    vertex 262.59411964430285 85.11557969041871 11.43860029049093
    vertex 262.5941196443031 61.11557969041704 12.438600290490834
    vertex 262.594119644303 85.11557969041871 12.43860029049093
  endloop
endfacet
facet normal -1.3958121957694203e-15 1.0 1.419311916457676e-15
  outer loop
    vertex 281.59411964430103 85.11557969041876 11.438600290487745
    vertex 262.594119644303 85.11557969041871 12.43860029049093
    vertex 281.59411964430114 85.11557969041876 12.438600290487745
  endloop
endfacet
facet normal -1.3958121957694203e-15 1.0 1.419311916457676e-15
  outer loop
    vertex 262.594119644303 85.11557969041871 12.43860029049093
    vertex 281.59411964430103 85.11557969041876 11.438600290487745
    vertex 262.59411964430285 85.11557969041871 11.43860029049093
  endloop
endfacet
facet normal 1.0 2.1809565559007676e-17 -1.36501920877663e-13
  outer loop
    vertex 265.59411964430285 82.11557969041873 11.438600290490418
    vertex 265.59411964430296 64.11557969041704 12.438600290490342
    vertex 265.59411964430285 64.11557969041704 11.438600290490342
  endloop
endfacet
facet normal 1.0 2.1809565559007676e-17 -1.36501920877663e-13
  outer loop
    vertex 265.59411964430296 64.11557969041704 12.438600290490342
    vertex 265.59411964430285 82.11557969041873 11.438600290490418
    vertex 265.594119644303 82.11557969041873 12.438600290490363
  endloop
endfacet
facet normal 1.6420198534206065e-13 -1.3958987416645112e-15 1.0
  outer loop
    vertex 281.5941196443012 61.11557969041709 12.438600290487777
    vertex 279.59411964430114 63.115579690417086 12.438600290488083
    vertex 262.5941196443031 61.11557969041704 12.438600290490834
  endloop
endfacet
facet normal 1.6420198534206065e-13 -1.3958987416645112e-15 1.0
  outer loop
    vertex 279.59411964430114 63.115579690417086 12.438600290488083
    vertex 281.5941196443012 61.11557969041709 12.438600290487777
    vertex 281.59411964430114 85.11557969041876 12.438600290487745
  endloop
endfacet
facet normal 1.6420198534206065e-13 -1.3958987416645112e-15 1.0
  outer loop
    vertex 279.59411964430114 63.115579690417086 12.438600290488083
    vertex 281.59411964430114 85.11557969041876 12.438600290487745
    vertex 279.5941196443012 83.11557969041877 12.438600290487972
  endloop
endfacet
facet normal 1.6420198534206065e-13 -1.3958987416645112e-15 1.0
  outer loop
    vertex 279.5941196443012 83.11557969041877 12.438600290487972
    vertex 281.59411964430114 85.11557969041876 12.438600290487745
    vertex 264.594119644303 83.11557969041873 12.438600290490587
  endloop
endfacet
facet normal 1.6420198534206065e-13 -1.3958987416645112e-15 1.0
  outer loop
    vertex 262.5941196443031 61.11557969041704 12.438600290490834
    vertex 264.594119644303 63.11557969041704 12.438600290490502
    vertex 262.594119644303 85.11557969041871 12.43860029049093
  endloop
endfacet
facet normal 1.6420198534206065e-13 -1.3958987416645112e-15 1.0
  outer loop
    vertex 264.594119644303 63.11557969041704 12.438600290490502
    vertex 262.5941196443031 61.11557969041704 12.438600290490834
    vertex 279.59411964430114 63.115579690417086 12.438600290488083
  endloop
endfacet
facet normal 1.6420198534206065e-13 -1.3958987416645112e-15 1.0
  outer loop
    vertex 262.594119644303 85.11557969041871 12.43860029049093
    vertex 264.594119644303 63.11557969041704 12.438600290490502
    vertex 264.594119644303 83.11557969041873 12.438600290490587
  endloop
endfacet
facet normal 1.6420198534206065e-13 -1.3958987416645112e-15 1.0
  outer loop
    vertex 262.594119644303 85.11557969041871 12.43860029049093
    vertex 264.594119644303 83.11557969041873 12.438600290490587
    vertex 281.59411964430114 85.11557969041876 12.438600290487745
  endloop
endfacet
facet normal 1.3958121957694337e-15 -1.0 -1.4193119164576761e-15
  outer loop
    vertex 262.5941196443031 61.11557969041704 12.438600290490834
    vertex 281.59411964430103 61.11557969041709 11.438600290487773
    vertex 281.5941196443012 61.11557969041709 12.438600290487777
  endloop
endfacet
facet normal 1.3958121957694337e-15 -1.0 -1.4193119164576761e-15
  outer loop
    vertex 281.59411964430103 61.11557969041709 11.438600290487773
    vertex 262.5941196443031 61.11557969041704 12.438600290490834
    vertex 262.59411964430285 61.11557969041704 11.438600290490829
  endloop
endfacet
endsolid 3DskrivarenV3_delar
