solid 3DskrivarenV3
facet normal 1.2246467991473532e-16 0.0 1.0
  outer loop
    vertex -248.5891692314178 298.0763159738233 515.1913258629595
    vertex -248.5891692314178 296.82484025350146 515.1913258629595
    vertex -248.53992259379834 297.45057811366235 515.1913258629595
  endloop
endfacet
facet normal 1.2246467991473532e-16 0.0 1.0
  outer loop
    vertex -248.5891692314178 296.82484025350146 515.1913258629595
    vertex -248.5891692314178 298.0763159738233 515.1913258629595
    vertex -248.73569652861772 298.6866460911621 515.1913258629595
  endloop
endfacet
facet normal 1.2246467991473532e-16 0.0 1.0
  outer loop
    vertex -248.5891692314178 296.82484025350146 515.1913258629595
    vertex -248.73569652861772 298.6866460911621 515.1913258629595
    vertex -248.73569652861772 296.2145101361626 515.1913258629595
  endloop
endfacet
facet normal 1.2246467991473532e-16 0.0 1.0
  outer loop
    vertex -248.73569652861772 296.2145101361626 515.1913258629595
    vertex -248.73569652861772 298.6866460911621 515.1913258629595
    vertex -248.97589649704486 299.2665401126206 515.1913258629595
  endloop
endfacet
facet normal 1.2246467991473532e-16 0.0 1.0
  outer loop
    vertex -248.73569652861772 296.2145101361626 515.1913258629595
    vertex -248.97589649704486 299.2665401126206 515.1913258629595
    vertex -248.97589649704486 295.63461611470416 515.1913258629595
  endloop
endfacet
facet normal 1.2246467991473532e-16 0.0 1.0
  outer loop
    vertex -248.97589649704486 295.63461611470416 515.1913258629595
    vertex -248.97589649704486 299.2665401126206 515.1913258629595
    vertex -249.30385461629857 299.80171912283225 515.1913258629595
  endloop
endfacet
facet normal 1.2246467991473532e-16 0.0 1.0
  outer loop
    vertex -248.97589649704486 295.63461611470416 515.1913258629595
    vertex -249.30385461629857 299.80171912283225 515.1913258629595
    vertex -249.30385461629857 295.09943710449244 515.1913258629595
  endloop
endfacet
facet normal 1.2246467991473532e-16 0.0 1.0
  outer loop
    vertex -249.30385461629857 295.09943710449244 515.1913258629595
    vertex -249.30385461629857 299.80171912283225 515.1913258629595
    vertex -249.71149546905215 300.27900523840856 515.1913258629595
  endloop
endfacet
facet normal 1.2246467991473532e-16 0.0 1.0
  outer loop
    vertex -249.30385461629857 295.09943710449244 515.1913258629595
    vertex -249.71149546905215 300.27900523840856 515.1913258629595
    vertex -249.71149546905215 294.6221509889162 515.1913258629595
  endloop
endfacet
facet normal 1.2246467991473532e-16 0.0 1.0
  outer loop
    vertex -249.71149546905215 294.6221509889162 515.1913258629595
    vertex -249.71149546905215 300.27900523840856 515.1913258629595
    vertex -250.18878158462846 300.6866460911622 515.1913258629595
  endloop
endfacet
facet normal 1.2246467991473532e-16 0.0 1.0
  outer loop
    vertex -249.71149546905215 294.6221509889162 515.1913258629595
    vertex -250.18878158462846 300.6866460911622 515.1913258629595
    vertex -250.18878158462846 294.2145101361626 515.1913258629595
  endloop
endfacet
facet normal 1.2246467991473532e-16 0.0 1.0
  outer loop
    vertex -250.18878158462846 294.2145101361626 515.1913258629595
    vertex -250.18878158462846 300.6866460911622 515.1913258629595
    vertex -250.72396059484015 301.0146042104159 515.1913258629595
  endloop
endfacet
facet normal 1.2246467991473532e-16 0.0 1.0
  outer loop
    vertex -250.18878158462846 294.2145101361626 515.1913258629595
    vertex -250.72396059484015 301.0146042104159 515.1913258629595
    vertex -250.72396059484015 293.88655201690887 515.1913258629595
  endloop
endfacet
facet normal 1.2246467991473532e-16 0.0 1.0
  outer loop
    vertex -250.72396059484015 293.88655201690887 515.1913258629595
    vertex -250.72396059484015 301.0146042104159 515.1913258629595
    vertex -250.93992259379831 297.45057811366235 515.1913258629595
  endloop
endfacet
facet normal 1.2246467991473532e-16 0.0 1.0
  outer loop
    vertex -250.93992259379831 297.45057811366235 515.1913258629595
    vertex -250.72396059484015 301.0146042104159 515.1913258629595
    vertex -251.30385461629854 301.25480417884296 515.1913258629595
  endloop
endfacet
facet normal 1.2246467991473532e-16 0.0 1.0
  outer loop
    vertex -250.93992259379831 297.45057811366235 515.1913258629595
    vertex -251.30385461629854 301.25480417884296 515.1913258629595
    vertex -250.99444127173584 297.8646885858264 515.1913258629595
  endloop
endfacet
facet normal 1.2246467991473532e-16 0.0 1.0
  outer loop
    vertex -250.99444127173584 297.8646885858264 515.1913258629595
    vertex -251.30385461629854 301.25480417884296 515.1913258629595
    vertex -251.15428194774324 298.25057811366236 515.1913258629595
  endloop
endfacet
facet normal 1.2246467991473532e-16 0.0 1.0
  outer loop
    vertex -251.15428194774324 298.25057811366236 515.1913258629595
    vertex -251.30385461629854 301.25480417884296 515.1913258629595
    vertex -251.4085517438999 298.5819489635608 515.1913258629595
  endloop
endfacet
facet normal 1.2246467991473532e-16 0.0 1.0
  outer loop
    vertex -251.4085517438999 298.5819489635608 515.1913258629595
    vertex -251.30385461629854 301.25480417884296 515.1913258629595
    vertex -251.91418473363743 301.4013314760429 515.1913258629595
  endloop
endfacet
facet normal 1.2246467991473532e-16 0.0 1.0
  outer loop
    vertex -251.4085517438999 298.5819489635608 515.1913258629595
    vertex -251.91418473363743 301.4013314760429 515.1913258629595
    vertex -251.73992259379833 298.83621875971744 515.1913258629595
  endloop
endfacet
facet normal 1.2246467991473532e-16 0.0 1.0
  outer loop
    vertex -251.73992259379833 298.83621875971744 515.1913258629595
    vertex -251.91418473363743 301.4013314760429 515.1913258629595
    vertex -252.1258121216343 298.9960594357249 515.1913258629595
  endloop
endfacet
facet normal 1.2246467991473532e-16 0.0 1.0
  outer loop
    vertex -252.1258121216343 298.9960594357249 515.1913258629595
    vertex -251.91418473363743 301.4013314760429 515.1913258629595
    vertex -252.5399225937983 301.45057811366235 515.1913258629595
  endloop
endfacet
facet normal 1.2246467991473532e-16 0.0 1.0
  outer loop
    vertex -252.1258121216343 298.9960594357249 515.1913258629595
    vertex -252.5399225937983 301.45057811366235 515.1913258629595
    vertex -252.5399225937983 299.05057811366237 515.1913258629595
  endloop
endfacet
facet normal 1.2246467991473532e-16 0.0 1.0
  outer loop
    vertex -252.5399225937983 299.05057811366237 515.1913258629595
    vertex -252.5399225937983 301.45057811366235 515.1913258629595
    vertex -253.1656604539593 301.4013314760429 515.1913258629595
  endloop
endfacet
facet normal 1.2246467991473532e-16 0.0 1.0
  outer loop
    vertex -252.5399225937983 299.05057811366237 515.1913258629595
    vertex -253.1656604539593 301.4013314760429 515.1913258629595
    vertex -252.95403306596236 298.9960594357249 515.1913258629595
  endloop
endfacet
facet normal 1.2246467991473532e-16 0.0 1.0
  outer loop
    vertex -252.95403306596236 298.9960594357249 515.1913258629595
    vertex -253.1656604539593 301.4013314760429 515.1913258629595
    vertex -253.33992259379832 298.83621875971744 515.1913258629595
  endloop
endfacet
facet normal 1.2246467991473532e-16 0.0 1.0
  outer loop
    vertex -253.33992259379832 298.83621875971744 515.1913258629595
    vertex -253.1656604539593 301.4013314760429 515.1913258629595
    vertex -253.77599057129814 301.25480417884296 515.1913258629595
  endloop
endfacet
facet normal 1.2246467991473532e-16 0.0 1.0
  outer loop
    vertex -253.33992259379832 298.83621875971744 515.1913258629595
    vertex -253.77599057129814 301.25480417884296 515.1913258629595
    vertex -253.67129344369684 298.5819489635608 515.1913258629595
  endloop
endfacet
facet normal 1.2246467991473532e-16 0.0 1.0
  outer loop
    vertex -253.67129344369684 298.5819489635608 515.1913258629595
    vertex -253.77599057129814 301.25480417884296 515.1913258629595
    vertex -253.92556323985346 298.25057811366236 515.1913258629595
  endloop
endfacet
facet normal 1.2246467991473532e-16 0.0 1.0
  outer loop
    vertex -253.92556323985346 298.25057811366236 515.1913258629595
    vertex -253.77599057129814 301.25480417884296 515.1913258629595
    vertex -254.35588459275655 301.0146042104159 515.1913258629595
  endloop
endfacet
facet normal 1.2246467991473532e-16 0.0 1.0
  outer loop
    vertex -253.92556323985346 298.25057811366236 515.1913258629595
    vertex -254.35588459275655 301.0146042104159 515.1913258629595
    vertex -254.0854039158609 297.8646885858264 515.1913258629595
  endloop
endfacet
facet normal 1.2246467991473532e-16 0.0 1.0
  outer loop
    vertex -254.0854039158609 297.8646885858264 515.1913258629595
    vertex -254.35588459275655 301.0146042104159 515.1913258629595
    vertex -254.1399225937983 297.45057811366235 515.1913258629595
  endloop
endfacet
facet normal 1.2246467991473532e-16 0.0 1.0
  outer loop
    vertex -250.93992259379831 297.45057811366235 515.1913258629595
    vertex -251.30385461629854 293.6463520484818 515.1913258629595
    vertex -250.72396059484015 293.88655201690887 515.1913258629595
  endloop
endfacet
facet normal 1.2246467991473532e-16 0.0 1.0
  outer loop
    vertex -251.30385461629854 293.6463520484818 515.1913258629595
    vertex -250.93992259379831 297.45057811366235 515.1913258629595
    vertex -250.99444127173584 297.0364676414983 515.1913258629595
  endloop
endfacet
facet normal 1.2246467991473532e-16 0.0 1.0
  outer loop
    vertex -251.30385461629854 293.6463520484818 515.1913258629595
    vertex -250.99444127173584 297.0364676414983 515.1913258629595
    vertex -251.15428194774324 296.6505781136624 515.1913258629595
  endloop
endfacet
facet normal 1.2246467991473532e-16 0.0 1.0
  outer loop
    vertex -251.30385461629854 293.6463520484818 515.1913258629595
    vertex -251.15428194774324 296.6505781136624 515.1913258629595
    vertex -251.4085517438999 296.3192072637639 515.1913258629595
  endloop
endfacet
facet normal 1.2246467991473532e-16 0.0 1.0
  outer loop
    vertex -251.30385461629854 293.6463520484818 515.1913258629595
    vertex -251.4085517438999 296.3192072637639 515.1913258629595
    vertex -251.91418473363743 293.49982475128184 515.1913258629595
  endloop
endfacet
facet normal 1.2246467991473532e-16 0.0 1.0
  outer loop
    vertex -251.91418473363743 293.49982475128184 515.1913258629595
    vertex -251.4085517438999 296.3192072637639 515.1913258629595
    vertex -251.73992259379833 296.0649374676073 515.1913258629595
  endloop
endfacet
facet normal 1.2246467991473532e-16 0.0 1.0
  outer loop
    vertex -251.91418473363743 293.49982475128184 515.1913258629595
    vertex -251.73992259379833 296.0649374676073 515.1913258629595
    vertex -252.1258121216343 295.9050967915998 515.1913258629595
  endloop
endfacet
facet normal 1.2246467991473532e-16 0.0 1.0
  outer loop
    vertex -251.91418473363743 293.49982475128184 515.1913258629595
    vertex -252.1258121216343 295.9050967915998 515.1913258629595
    vertex -252.5399225937983 293.4505781136624 515.1913258629595
  endloop
endfacet
facet normal 1.2246467991473532e-16 0.0 1.0
  outer loop
    vertex -252.5399225937983 293.4505781136624 515.1913258629595
    vertex -252.1258121216343 295.9050967915998 515.1913258629595
    vertex -252.5399225937983 295.8505781136624 515.1913258629595
  endloop
endfacet
facet normal 1.2246467991473532e-16 0.0 1.0
  outer loop
    vertex -252.5399225937983 293.4505781136624 515.1913258629595
    vertex -252.5399225937983 295.8505781136624 515.1913258629595
    vertex -252.95403306596236 295.9050967915998 515.1913258629595
  endloop
endfacet
facet normal 1.2246467991473532e-16 0.0 1.0
  outer loop
    vertex -252.5399225937983 293.4505781136624 515.1913258629595
    vertex -252.95403306596236 295.9050967915998 515.1913258629595
    vertex -253.1656604539593 293.49982475128184 515.1913258629595
  endloop
endfacet
facet normal 1.2246467991473532e-16 0.0 1.0
  outer loop
    vertex -253.1656604539593 293.49982475128184 515.1913258629595
    vertex -252.95403306596236 295.9050967915998 515.1913258629595
    vertex -253.33992259379832 296.0649374676073 515.1913258629595
  endloop
endfacet
facet normal 1.2246467991473532e-16 0.0 1.0
  outer loop
    vertex -253.1656604539593 293.49982475128184 515.1913258629595
    vertex -253.33992259379832 296.0649374676073 515.1913258629595
    vertex -253.77599057129814 293.6463520484818 515.1913258629595
  endloop
endfacet
facet normal 1.2246467991473532e-16 0.0 1.0
  outer loop
    vertex -253.77599057129814 293.6463520484818 515.1913258629595
    vertex -253.33992259379832 296.0649374676073 515.1913258629595
    vertex -253.67129344369684 296.3192072637639 515.1913258629595
  endloop
endfacet
facet normal 1.2246467991473532e-16 0.0 1.0
  outer loop
    vertex -253.77599057129814 293.6463520484818 515.1913258629595
    vertex -253.67129344369684 296.3192072637639 515.1913258629595
    vertex -253.92556323985346 296.6505781136624 515.1913258629595
  endloop
endfacet
facet normal 1.2246467991473532e-16 0.0 1.0
  outer loop
    vertex -253.77599057129814 293.6463520484818 515.1913258629595
    vertex -253.92556323985346 296.6505781136624 515.1913258629595
    vertex -254.35588459275655 293.88655201690887 515.1913258629595
  endloop
endfacet
facet normal 1.2246467991473532e-16 0.0 1.0
  outer loop
    vertex -254.35588459275655 293.88655201690887 515.1913258629595
    vertex -253.92556323985346 296.6505781136624 515.1913258629595
    vertex -254.0854039158609 297.0364676414983 515.1913258629595
  endloop
endfacet
facet normal 1.2246467991473532e-16 0.0 1.0
  outer loop
    vertex -254.35588459275655 293.88655201690887 515.1913258629595
    vertex -254.0854039158609 297.0364676414983 515.1913258629595
    vertex -254.1399225937983 297.45057811366235 515.1913258629595
  endloop
endfacet
facet normal 1.2246467991473532e-16 0.0 1.0
  outer loop
    vertex -254.35588459275655 293.88655201690887 515.1913258629595
    vertex -254.1399225937983 297.45057811366235 515.1913258629595
    vertex -254.35588459275655 301.0146042104159 515.1913258629595
  endloop
endfacet
facet normal 1.2246467991473532e-16 0.0 1.0
  outer loop
    vertex -254.35588459275655 293.88655201690887 515.1913258629595
    vertex -254.35588459275655 301.0146042104159 515.1913258629595
    vertex -254.89106360296822 300.6866460911622 515.1913258629595
  endloop
endfacet
facet normal 1.2246467991473532e-16 0.0 1.0
  outer loop
    vertex -254.35588459275655 293.88655201690887 515.1913258629595
    vertex -254.89106360296822 300.6866460911622 515.1913258629595
    vertex -254.89106360296822 294.2145101361626 515.1913258629595
  endloop
endfacet
facet normal 1.2246467991473532e-16 0.0 1.0
  outer loop
    vertex -254.89106360296822 294.2145101361626 515.1913258629595
    vertex -254.89106360296822 300.6866460911622 515.1913258629595
    vertex -255.36834971854452 300.27900523840856 515.1913258629595
  endloop
endfacet
facet normal 1.2246467991473532e-16 0.0 1.0
  outer loop
    vertex -254.89106360296822 294.2145101361626 515.1913258629595
    vertex -255.36834971854452 300.27900523840856 515.1913258629595
    vertex -255.36834971854452 294.6221509889162 515.1913258629595
  endloop
endfacet
facet normal 1.2246467991473532e-16 0.0 1.0
  outer loop
    vertex -255.36834971854452 294.6221509889162 515.1913258629595
    vertex -255.36834971854452 300.27900523840856 515.1913258629595
    vertex -255.77599057129814 299.80171912283225 515.1913258629595
  endloop
endfacet
facet normal 1.2246467991473532e-16 0.0 1.0
  outer loop
    vertex -255.36834971854452 294.6221509889162 515.1913258629595
    vertex -255.77599057129814 299.80171912283225 515.1913258629595
    vertex -255.77599057129814 295.09943710449244 515.1913258629595
  endloop
endfacet
facet normal 1.2246467991473532e-16 0.0 1.0
  outer loop
    vertex -255.77599057129814 295.09943710449244 515.1913258629595
    vertex -255.77599057129814 299.80171912283225 515.1913258629595
    vertex -256.1039486905518 299.2665401126206 515.1913258629595
  endloop
endfacet
facet normal 1.2246467991473532e-16 0.0 1.0
  outer loop
    vertex -255.77599057129814 295.09943710449244 515.1913258629595
    vertex -256.1039486905518 299.2665401126206 515.1913258629595
    vertex -256.1039486905518 295.63461611470416 515.1913258629595
  endloop
endfacet
facet normal 1.2246467991473532e-16 0.0 1.0
  outer loop
    vertex -256.1039486905518 295.63461611470416 515.1913258629595
    vertex -256.1039486905518 299.2665401126206 515.1913258629595
    vertex -256.34414865897895 298.6866460911622 515.1913258629595
  endloop
endfacet
facet normal 1.2246467991473532e-16 0.0 1.0
  outer loop
    vertex -256.1039486905518 295.63461611470416 515.1913258629595
    vertex -256.34414865897895 298.6866460911622 515.1913258629595
    vertex -256.34414865897895 296.21451013616263 515.1913258629595
  endloop
endfacet
facet normal 1.2246467991473532e-16 0.0 1.0
  outer loop
    vertex -256.34414865897895 296.21451013616263 515.1913258629595
    vertex -256.34414865897895 298.6866460911622 515.1913258629595
    vertex -256.49067595617885 298.0763159738233 515.1913258629595
  endloop
endfacet
facet normal 1.2246467991473532e-16 0.0 1.0
  outer loop
    vertex -256.34414865897895 296.21451013616263 515.1913258629595
    vertex -256.49067595617885 298.0763159738233 515.1913258629595
    vertex -256.49067595617885 296.82484025350146 515.1913258629595
  endloop
endfacet
facet normal 1.2246467991473532e-16 0.0 1.0
  outer loop
    vertex -256.49067595617885 296.82484025350146 515.1913258629595
    vertex -256.49067595617885 298.0763159738233 515.1913258629595
    vertex -256.5399225937983 297.45057811366235 515.1913258629595
  endloop
endfacet
facet normal -1.2246467991473532e-16 0.0 -1.0
  outer loop
    vertex -248.5891692314178 296.82484025350146 507.19132586296166
    vertex -248.5891692314178 298.0763159738233 507.19132586296166
    vertex -248.53992259379837 297.45057811366235 507.19132586296166
  endloop
endfacet
facet normal -1.2246467991473532e-16 0.0 -1.0
  outer loop
    vertex -248.5891692314178 298.0763159738233 507.19132586296166
    vertex -248.5891692314178 296.82484025350146 507.19132586296166
    vertex -248.73569652861772 296.2145101361626 507.19132586296166
  endloop
endfacet
facet normal -1.2246467991473532e-16 0.0 -1.0
  outer loop
    vertex -248.5891692314178 298.0763159738233 507.19132586296166
    vertex -248.73569652861772 296.2145101361626 507.19132586296166
    vertex -248.73569652861772 298.6866460911621 507.19132586296166
  endloop
endfacet
facet normal -1.2246467991473532e-16 0.0 -1.0
  outer loop
    vertex -248.73569652861772 298.6866460911621 507.19132586296166
    vertex -248.73569652861772 296.2145101361626 507.19132586296166
    vertex -248.97589649704486 295.63461611470416 507.19132586296166
  endloop
endfacet
facet normal -1.2246467991473532e-16 0.0 -1.0
  outer loop
    vertex -248.73569652861772 298.6866460911621 507.19132586296166
    vertex -248.97589649704486 295.63461611470416 507.19132586296166
    vertex -248.97589649704486 299.2665401126206 507.19132586296166
  endloop
endfacet
facet normal -1.2246467991473532e-16 0.0 -1.0
  outer loop
    vertex -248.97589649704486 299.2665401126206 507.19132586296166
    vertex -248.97589649704486 295.63461611470416 507.19132586296166
    vertex -249.30385461629857 295.09943710449244 507.19132586296166
  endloop
endfacet
facet normal -1.2246467991473532e-16 0.0 -1.0
  outer loop
    vertex -248.97589649704486 299.2665401126206 507.19132586296166
    vertex -249.30385461629857 295.09943710449244 507.19132586296166
    vertex -249.30385461629857 299.80171912283225 507.19132586296166
  endloop
endfacet
facet normal -1.2246467991473532e-16 0.0 -1.0
  outer loop
    vertex -249.30385461629857 299.80171912283225 507.19132586296166
    vertex -249.30385461629857 295.09943710449244 507.19132586296166
    vertex -249.71149546905215 294.6221509889162 507.19132586296166
  endloop
endfacet
facet normal -1.2246467991473532e-16 0.0 -1.0
  outer loop
    vertex -249.30385461629857 299.80171912283225 507.19132586296166
    vertex -249.71149546905215 294.6221509889162 507.19132586296166
    vertex -249.71149546905215 300.27900523840856 507.19132586296166
  endloop
endfacet
facet normal -1.2246467991473532e-16 0.0 -1.0
  outer loop
    vertex -249.71149546905215 300.27900523840856 507.19132586296166
    vertex -249.71149546905215 294.6221509889162 507.19132586296166
    vertex -250.18878158462846 294.2145101361626 507.19132586296166
  endloop
endfacet
facet normal -1.2246467991473532e-16 0.0 -1.0
  outer loop
    vertex -249.71149546905215 300.27900523840856 507.19132586296166
    vertex -250.18878158462846 294.2145101361626 507.19132586296166
    vertex -250.18878158462846 300.6866460911622 507.19132586296166
  endloop
endfacet
facet normal -1.2246467991473532e-16 0.0 -1.0
  outer loop
    vertex -250.18878158462846 300.6866460911622 507.19132586296166
    vertex -250.18878158462846 294.2145101361626 507.19132586296166
    vertex -250.72396059484015 293.88655201690887 507.19132586296166
  endloop
endfacet
facet normal -1.2246467991473532e-16 0.0 -1.0
  outer loop
    vertex -250.18878158462846 300.6866460911622 507.19132586296166
    vertex -250.72396059484015 293.88655201690887 507.19132586296166
    vertex -250.72396059484015 301.0146042104159 507.19132586296166
  endloop
endfacet
facet normal -1.2246467991473532e-16 0.0 -1.0
  outer loop
    vertex -250.72396059484015 301.0146042104159 507.19132586296166
    vertex -250.72396059484015 293.88655201690887 507.19132586296166
    vertex -250.93992259379831 297.45057811366235 507.1913258629617
  endloop
endfacet
facet normal -1.2246467991473532e-16 0.0 -1.0
  outer loop
    vertex -250.93992259379831 297.45057811366235 507.1913258629617
    vertex -250.72396059484015 293.88655201690887 507.19132586296166
    vertex -251.30385461629854 293.6463520484818 507.19132586296166
  endloop
endfacet
facet normal -1.2246467991473532e-16 0.0 -1.0
  outer loop
    vertex -250.93992259379831 297.45057811366235 507.1913258629617
    vertex -251.30385461629854 293.6463520484818 507.19132586296166
    vertex -250.99444127173584 297.0364676414983 507.1913258629617
  endloop
endfacet
facet normal -1.2246467991473532e-16 0.0 -1.0
  outer loop
    vertex -250.99444127173584 297.0364676414983 507.1913258629617
    vertex -251.30385461629854 293.6463520484818 507.19132586296166
    vertex -251.15428194774324 296.6505781136624 507.1913258629617
  endloop
endfacet
facet normal -1.2246467991473532e-16 0.0 -1.0
  outer loop
    vertex -251.15428194774324 296.6505781136624 507.1913258629617
    vertex -251.30385461629854 293.6463520484818 507.19132586296166
    vertex -251.4085517438999 296.3192072637639 507.1913258629617
  endloop
endfacet
facet normal -1.2246467991473532e-16 0.0 -1.0
  outer loop
    vertex -251.4085517438999 296.3192072637639 507.1913258629617
    vertex -251.30385461629854 293.6463520484818 507.19132586296166
    vertex -251.91418473363743 293.49982475128184 507.19132586296166
  endloop
endfacet
facet normal -1.2246467991473532e-16 0.0 -1.0
  outer loop
    vertex -251.4085517438999 296.3192072637639 507.1913258629617
    vertex -251.91418473363743 293.49982475128184 507.19132586296166
    vertex -251.73992259379833 296.0649374676073 507.1913258629617
  endloop
endfacet
facet normal -1.2246467991473532e-16 0.0 -1.0
  outer loop
    vertex -251.73992259379833 296.0649374676073 507.1913258629617
    vertex -251.91418473363743 293.49982475128184 507.19132586296166
    vertex -252.1258121216343 295.9050967915998 507.1913258629617
  endloop
endfacet
facet normal -1.2246467991473532e-16 0.0 -1.0
  outer loop
    vertex -252.1258121216343 295.9050967915998 507.1913258629617
    vertex -251.91418473363743 293.49982475128184 507.19132586296166
    vertex -252.5399225937983 293.4505781136624 507.19132586296166
  endloop
endfacet
facet normal -1.2246467991473532e-16 0.0 -1.0
  outer loop
    vertex -252.1258121216343 295.9050967915998 507.1913258629617
    vertex -252.5399225937983 293.4505781136624 507.19132586296166
    vertex -252.5399225937983 295.8505781136624 507.1913258629617
  endloop
endfacet
facet normal -1.2246467991473532e-16 0.0 -1.0
  outer loop
    vertex -252.5399225937983 295.8505781136624 507.1913258629617
    vertex -252.5399225937983 293.4505781136624 507.19132586296166
    vertex -253.1656604539593 293.49982475128184 507.19132586296166
  endloop
endfacet
facet normal -1.2246467991473532e-16 0.0 -1.0
  outer loop
    vertex -252.5399225937983 295.8505781136624 507.1913258629617
    vertex -253.1656604539593 293.49982475128184 507.19132586296166
    vertex -252.95403306596236 295.9050967915998 507.1913258629617
  endloop
endfacet
facet normal -1.2246467991473532e-16 0.0 -1.0
  outer loop
    vertex -252.95403306596236 295.9050967915998 507.1913258629617
    vertex -253.1656604539593 293.49982475128184 507.19132586296166
    vertex -253.33992259379832 296.0649374676073 507.1913258629617
  endloop
endfacet
facet normal -1.2246467991473532e-16 0.0 -1.0
  outer loop
    vertex -253.33992259379832 296.0649374676073 507.1913258629617
    vertex -253.1656604539593 293.49982475128184 507.19132586296166
    vertex -253.77599057129814 293.6463520484818 507.19132586296166
  endloop
endfacet
facet normal -1.2246467991473532e-16 0.0 -1.0
  outer loop
    vertex -253.33992259379832 296.0649374676073 507.1913258629617
    vertex -253.77599057129814 293.6463520484818 507.19132586296166
    vertex -253.67129344369684 296.3192072637639 507.1913258629617
  endloop
endfacet
facet normal -1.2246467991473532e-16 0.0 -1.0
  outer loop
    vertex -253.67129344369684 296.3192072637639 507.1913258629617
    vertex -253.77599057129814 293.6463520484818 507.19132586296166
    vertex -253.92556323985346 296.6505781136624 507.1913258629617
  endloop
endfacet
facet normal -1.2246467991473532e-16 0.0 -1.0
  outer loop
    vertex -253.92556323985346 296.6505781136624 507.1913258629617
    vertex -253.77599057129814 293.6463520484818 507.19132586296166
    vertex -254.35588459275655 293.88655201690887 507.19132586296166
  endloop
endfacet
facet normal -1.2246467991473532e-16 0.0 -1.0
  outer loop
    vertex -253.92556323985346 296.6505781136624 507.1913258629617
    vertex -254.35588459275655 293.88655201690887 507.19132586296166
    vertex -254.0854039158609 297.0364676414983 507.1913258629617
  endloop
endfacet
facet normal -1.2246467991473532e-16 0.0 -1.0
  outer loop
    vertex -254.0854039158609 297.0364676414983 507.1913258629617
    vertex -254.35588459275655 293.88655201690887 507.19132586296166
    vertex -254.1399225937983 297.45057811366235 507.1913258629617
  endloop
endfacet
facet normal -1.2246467991473532e-16 0.0 -1.0
  outer loop
    vertex -250.93992259379831 297.45057811366235 507.1913258629617
    vertex -251.30385461629854 301.25480417884296 507.19132586296166
    vertex -250.72396059484015 301.0146042104159 507.19132586296166
  endloop
endfacet
facet normal -1.2246467991473532e-16 0.0 -1.0
  outer loop
    vertex -251.30385461629854 301.25480417884296 507.19132586296166
    vertex -250.93992259379831 297.45057811366235 507.1913258629617
    vertex -250.99444127173584 297.8646885858264 507.1913258629617
  endloop
endfacet
facet normal -1.2246467991473532e-16 0.0 -1.0
  outer loop
    vertex -251.30385461629854 301.25480417884296 507.19132586296166
    vertex -250.99444127173584 297.8646885858264 507.1913258629617
    vertex -251.15428194774324 298.25057811366236 507.1913258629617
  endloop
endfacet
facet normal -1.2246467991473532e-16 0.0 -1.0
  outer loop
    vertex -251.30385461629854 301.25480417884296 507.19132586296166
    vertex -251.15428194774324 298.25057811366236 507.1913258629617
    vertex -251.4085517438999 298.5819489635608 507.1913258629617
  endloop
endfacet
facet normal -1.2246467991473532e-16 0.0 -1.0
  outer loop
    vertex -251.30385461629854 301.25480417884296 507.19132586296166
    vertex -251.4085517438999 298.5819489635608 507.1913258629617
    vertex -251.91418473363743 301.4013314760429 507.19132586296166
  endloop
endfacet
facet normal -1.2246467991473532e-16 0.0 -1.0
  outer loop
    vertex -251.91418473363743 301.4013314760429 507.19132586296166
    vertex -251.4085517438999 298.5819489635608 507.1913258629617
    vertex -251.73992259379833 298.83621875971744 507.1913258629617
  endloop
endfacet
facet normal -1.2246467991473532e-16 0.0 -1.0
  outer loop
    vertex -251.91418473363743 301.4013314760429 507.19132586296166
    vertex -251.73992259379833 298.83621875971744 507.1913258629617
    vertex -252.1258121216343 298.9960594357249 507.1913258629617
  endloop
endfacet
facet normal -1.2246467991473532e-16 0.0 -1.0
  outer loop
    vertex -251.91418473363743 301.4013314760429 507.19132586296166
    vertex -252.1258121216343 298.9960594357249 507.1913258629617
    vertex -252.5399225937983 301.45057811366235 507.19132586296166
  endloop
endfacet
facet normal -1.2246467991473532e-16 0.0 -1.0
  outer loop
    vertex -252.5399225937983 301.45057811366235 507.19132586296166
    vertex -252.1258121216343 298.9960594357249 507.1913258629617
    vertex -252.5399225937983 299.05057811366237 507.1913258629617
  endloop
endfacet
facet normal -1.2246467991473532e-16 0.0 -1.0
  outer loop
    vertex -252.5399225937983 301.45057811366235 507.19132586296166
    vertex -252.5399225937983 299.05057811366237 507.1913258629617
    vertex -252.95403306596236 298.9960594357249 507.1913258629617
  endloop
endfacet
facet normal -1.2246467991473532e-16 0.0 -1.0
  outer loop
    vertex -252.5399225937983 301.45057811366235 507.19132586296166
    vertex -252.95403306596236 298.9960594357249 507.1913258629617
    vertex -253.1656604539593 301.4013314760429 507.19132586296166
  endloop
endfacet
facet normal -1.2246467991473532e-16 0.0 -1.0
  outer loop
    vertex -253.1656604539593 301.4013314760429 507.19132586296166
    vertex -252.95403306596236 298.9960594357249 507.1913258629617
    vertex -253.33992259379832 298.83621875971744 507.1913258629617
  endloop
endfacet
facet normal -1.2246467991473532e-16 0.0 -1.0
  outer loop
    vertex -253.1656604539593 301.4013314760429 507.19132586296166
    vertex -253.33992259379832 298.83621875971744 507.1913258629617
    vertex -253.77599057129814 301.25480417884296 507.19132586296166
  endloop
endfacet
facet normal -1.2246467991473532e-16 0.0 -1.0
  outer loop
    vertex -253.77599057129814 301.25480417884296 507.19132586296166
    vertex -253.33992259379832 298.83621875971744 507.1913258629617
    vertex -253.67129344369684 298.5819489635608 507.1913258629617
  endloop
endfacet
facet normal -1.2246467991473532e-16 0.0 -1.0
  outer loop
    vertex -253.77599057129814 301.25480417884296 507.19132586296166
    vertex -253.67129344369684 298.5819489635608 507.1913258629617
    vertex -253.92556323985346 298.25057811366236 507.1913258629617
  endloop
endfacet
facet normal -1.2246467991473532e-16 0.0 -1.0
  outer loop
    vertex -253.77599057129814 301.25480417884296 507.19132586296166
    vertex -253.92556323985346 298.25057811366236 507.1913258629617
    vertex -254.35588459275655 301.0146042104159 507.19132586296166
  endloop
endfacet
facet normal -1.2246467991473532e-16 0.0 -1.0
  outer loop
    vertex -254.35588459275655 301.0146042104159 507.19132586296166
    vertex -253.92556323985346 298.25057811366236 507.1913258629617
    vertex -254.0854039158609 297.8646885858264 507.1913258629617
  endloop
endfacet
facet normal -1.2246467991473532e-16 0.0 -1.0
  outer loop
    vertex -254.35588459275655 301.0146042104159 507.19132586296166
    vertex -254.0854039158609 297.8646885858264 507.1913258629617
    vertex -254.1399225937983 297.45057811366235 507.1913258629617
  endloop
endfacet
facet normal -1.2246467991473532e-16 0.0 -1.0
  outer loop
    vertex -254.35588459275655 301.0146042104159 507.19132586296166
    vertex -254.1399225937983 297.45057811366235 507.1913258629617
    vertex -254.35588459275655 293.88655201690887 507.19132586296166
  endloop
endfacet
facet normal -1.2246467991473532e-16 0.0 -1.0
  outer loop
    vertex -254.35588459275655 301.0146042104159 507.19132586296166
    vertex -254.35588459275655 293.88655201690887 507.19132586296166
    vertex -254.89106360296822 294.2145101361626 507.19132586296166
  endloop
endfacet
facet normal -1.2246467991473532e-16 0.0 -1.0
  outer loop
    vertex -254.35588459275655 301.0146042104159 507.19132586296166
    vertex -254.89106360296822 294.2145101361626 507.19132586296166
    vertex -254.89106360296822 300.6866460911622 507.19132586296166
  endloop
endfacet
facet normal -1.2246467991473532e-16 0.0 -1.0
  outer loop
    vertex -254.89106360296822 300.6866460911622 507.19132586296166
    vertex -254.89106360296822 294.2145101361626 507.19132586296166
    vertex -255.36834971854452 294.6221509889162 507.19132586296166
  endloop
endfacet
facet normal -1.2246467991473532e-16 0.0 -1.0
  outer loop
    vertex -254.89106360296822 300.6866460911622 507.19132586296166
    vertex -255.36834971854452 294.6221509889162 507.19132586296166
    vertex -255.36834971854452 300.27900523840856 507.19132586296166
  endloop
endfacet
facet normal -1.2246467991473532e-16 0.0 -1.0
  outer loop
    vertex -255.36834971854452 300.27900523840856 507.19132586296166
    vertex -255.36834971854452 294.6221509889162 507.19132586296166
    vertex -255.77599057129814 295.09943710449244 507.19132586296166
  endloop
endfacet
facet normal -1.2246467991473532e-16 0.0 -1.0
  outer loop
    vertex -255.36834971854452 300.27900523840856 507.19132586296166
    vertex -255.77599057129814 295.09943710449244 507.19132586296166
    vertex -255.77599057129814 299.80171912283225 507.19132586296166
  endloop
endfacet
facet normal -1.2246467991473532e-16 0.0 -1.0
  outer loop
    vertex -255.77599057129814 299.80171912283225 507.19132586296166
    vertex -255.77599057129814 295.09943710449244 507.19132586296166
    vertex -256.1039486905518 295.63461611470416 507.19132586296166
  endloop
endfacet
facet normal -1.2246467991473532e-16 0.0 -1.0
  outer loop
    vertex -255.77599057129814 299.80171912283225 507.19132586296166
    vertex -256.1039486905518 295.63461611470416 507.19132586296166
    vertex -256.1039486905518 299.2665401126206 507.19132586296166
  endloop
endfacet
facet normal -1.2246467991473532e-16 0.0 -1.0
  outer loop
    vertex -256.1039486905518 299.2665401126206 507.19132586296166
    vertex -256.1039486905518 295.63461611470416 507.19132586296166
    vertex -256.34414865897895 296.21451013616263 507.19132586296166
  endloop
endfacet
facet normal -1.2246467991473532e-16 0.0 -1.0
  outer loop
    vertex -256.1039486905518 299.2665401126206 507.19132586296166
    vertex -256.34414865897895 296.21451013616263 507.19132586296166
    vertex -256.34414865897895 298.6866460911622 507.19132586296166
  endloop
endfacet
facet normal -1.2246467991473532e-16 0.0 -1.0
  outer loop
    vertex -256.34414865897895 298.6866460911622 507.19132586296166
    vertex -256.34414865897895 296.21451013616263 507.19132586296166
    vertex -256.49067595617885 296.82484025350146 507.19132586296166
  endloop
endfacet
facet normal -1.2246467991473532e-16 0.0 -1.0
  outer loop
    vertex -256.34414865897895 298.6866460911622 507.19132586296166
    vertex -256.49067595617885 296.82484025350146 507.19132586296166
    vertex -256.49067595617885 298.0763159738233 507.19132586296166
  endloop
endfacet
facet normal -1.2246467991473532e-16 0.0 -1.0
  outer loop
    vertex -256.49067595617885 298.0763159738233 507.19132586296166
    vertex -256.49067595617885 296.82484025350146 507.19132586296166
    vertex -256.5399225937983 297.45057811366235 507.19132586296166
  endloop
endfacet
facet normal -0.9238795325113043 -0.38268343236504754 1.1314261122877217e-16
  outer loop
    vertex -256.34414865897895 296.21451013616263 515.1913258629595
    vertex -256.1039486905518 295.63461611470416 507.19132586296166
    vertex -256.1039486905518 295.63461611470416 515.1913258629595
  endloop
endfacet
facet normal -0.9238795325113043 -0.38268343236504754 1.1314261122877217e-16
  outer loop
    vertex -256.1039486905518 295.63461611470416 507.19132586296166
    vertex -256.34414865897895 296.21451013616263 515.1913258629595
    vertex -256.34414865897895 296.21451013616263 507.19132586296166
  endloop
endfacet
facet normal -0.7604059656000167 -0.6494480483302004 9.312287318246128e-17
  outer loop
    vertex -255.77599057129814 295.09943710449244 515.1913258629595
    vertex -255.36834971854452 294.6221509889162 507.19132586296166
    vertex -255.36834971854452 294.6221509889162 515.1913258629595
  endloop
endfacet
facet normal -0.7604059656000167 -0.6494480483302004 9.312287318246128e-17
  outer loop
    vertex -255.36834971854452 294.6221509889162 507.19132586296166
    vertex -255.77599057129814 295.09943710449244 515.1913258629595
    vertex -255.77599057129814 295.09943710449244 507.19132586296166
  endloop
endfacet
facet normal 0.07845909572782896 -0.9969173337331293 -9.60846804470815e-18
  outer loop
    vertex -252.5399225937983 293.4505781136624 507.19132586296166
    vertex -251.91418473363743 293.49982475128184 515.1913258629595
    vertex -252.5399225937983 293.4505781136624 515.1913258629595
  endloop
endfacet
facet normal 0.07845909572782896 -0.9969173337331293 -9.60846804470815e-18
  outer loop
    vertex -251.91418473363743 293.49982475128184 515.1913258629595
    vertex -252.5399225937983 293.4505781136624 507.19132586296166
    vertex -251.91418473363743 293.49982475128184 507.19132586296166
  endloop
endfacet
facet normal -0.972369920397674 -0.23344536385591644 1.1908097106021782e-16
  outer loop
    vertex -256.49067595617885 296.82484025350146 515.1913258629595
    vertex -256.34414865897895 296.21451013616263 507.19132586296166
    vertex -256.34414865897895 296.21451013616263 515.1913258629595
  endloop
endfacet
facet normal -0.972369920397674 -0.23344536385591644 1.1908097106021782e-16
  outer loop
    vertex -256.34414865897895 296.21451013616263 507.19132586296166
    vertex -256.49067595617885 296.82484025350146 515.1913258629595
    vertex -256.49067595617885 296.82484025350146 507.19132586296166
  endloop
endfacet
facet normal -0.07845909572782615 -0.9969173337331295 9.608468044707807e-18
  outer loop
    vertex -253.1656604539593 293.49982475128184 507.19132586296166
    vertex -252.5399225937983 293.4505781136624 515.1913258629595
    vertex -253.1656604539593 293.49982475128184 515.1913258629595
  endloop
endfacet
facet normal -0.07845909572782615 -0.9969173337331295 9.608468044707807e-18
  outer loop
    vertex -252.5399225937983 293.4505781136624 515.1913258629595
    vertex -253.1656604539593 293.49982475128184 507.19132586296166
    vertex -252.5399225937983 293.4505781136624 507.19132586296166
  endloop
endfacet
facet normal -0.9969173337331295 -0.07845909572782615 1.2208716217707907e-16
  outer loop
    vertex -256.5399225937983 297.45057811366235 515.1913258629595
    vertex -256.49067595617885 296.82484025350146 507.19132586296166
    vertex -256.49067595617885 296.82484025350146 515.1913258629595
  endloop
endfacet
facet normal -0.9969173337331295 -0.07845909572782615 1.2208716217707907e-16
  outer loop
    vertex -256.49067595617885 296.82484025350146 507.19132586296166
    vertex -256.5399225937983 297.45057811366235 515.1913258629595
    vertex -256.5399225937983 297.45057811366235 507.19132586296166
  endloop
endfacet
facet normal -0.2334453638559423 -0.9723699203976679 2.8588811762196894e-17
  outer loop
    vertex -253.77599057129814 293.6463520484818 507.19132586296166
    vertex -253.1656604539593 293.49982475128184 515.1913258629595
    vertex -253.77599057129814 293.6463520484818 515.1913258629595
  endloop
endfacet
facet normal -0.2334453638559423 -0.9723699203976679 2.8588811762196894e-17
  outer loop
    vertex -253.1656604539593 293.49982475128184 515.1913258629595
    vertex -253.77599057129814 293.6463520484818 507.19132586296166
    vertex -253.1656604539593 293.49982475128184 507.19132586296166
  endloop
endfacet
facet normal -0.8526401643540916 -0.5224985647159499 1.0441830481007115e-16
  outer loop
    vertex -256.1039486905518 295.63461611470416 515.1913258629595
    vertex -255.77599057129814 295.09943710449244 507.19132586296166
    vertex -255.77599057129814 295.09943710449244 515.1913258629595
  endloop
endfacet
facet normal -0.8526401643540916 -0.5224985647159499 1.0441830481007115e-16
  outer loop
    vertex -255.77599057129814 295.09943710449244 507.19132586296166
    vertex -256.1039486905518 295.63461611470416 515.1913258629595
    vertex -256.1039486905518 295.63461611470416 507.19132586296166
  endloop
endfacet
facet normal -0.5224985647159499 -0.8526401643540916 6.398761948384742e-17
  outer loop
    vertex -254.89106360296822 294.2145101361626 507.19132586296166
    vertex -254.35588459275655 293.88655201690887 515.1913258629595
    vertex -254.89106360296822 294.2145101361626 515.1913258629595
  endloop
endfacet
facet normal -0.5224985647159499 -0.8526401643540916 6.398761948384742e-17
  outer loop
    vertex -254.35588459275655 293.88655201690887 515.1913258629595
    vertex -254.89106360296822 294.2145101361626 507.19132586296166
    vertex -254.35588459275655 293.88655201690887 507.19132586296166
  endloop
endfacet
facet normal -0.38268343236502966 -0.9238795325113118 4.686520405325562e-17
  outer loop
    vertex -254.35588459275655 293.88655201690887 507.19132586296166
    vertex -253.77599057129814 293.6463520484818 515.1913258629595
    vertex -254.35588459275655 293.88655201690887 515.1913258629595
  endloop
endfacet
facet normal -0.38268343236502966 -0.9238795325113118 4.686520405325562e-17
  outer loop
    vertex -253.77599057129814 293.6463520484818 515.1913258629595
    vertex -254.35588459275655 293.88655201690887 507.19132586296166
    vertex -253.77599057129814 293.6463520484818 507.19132586296166
  endloop
endfacet
facet normal 0.23344536385593415 -0.9723699203976699 -2.8588811762195896e-17
  outer loop
    vertex -251.91418473363743 293.49982475128184 507.19132586296166
    vertex -251.30385461629854 293.6463520484818 515.1913258629595
    vertex -251.91418473363743 293.49982475128184 515.1913258629595
  endloop
endfacet
facet normal 0.23344536385593415 -0.9723699203976699 -2.8588811762195896e-17
  outer loop
    vertex -251.30385461629854 293.6463520484818 515.1913258629595
    vertex -251.91418473363743 293.49982475128184 507.19132586296166
    vertex -251.30385461629854 293.6463520484818 507.19132586296166
  endloop
endfacet
facet normal 0.3826834323650423 -0.9238795325113066 -4.686520405325717e-17
  outer loop
    vertex -251.30385461629854 293.6463520484818 507.19132586296166
    vertex -250.72396059484015 293.88655201690887 515.1913258629595
    vertex -251.30385461629854 293.6463520484818 515.1913258629595
  endloop
endfacet
facet normal 0.3826834323650423 -0.9238795325113066 -4.686520405325717e-17
  outer loop
    vertex -250.72396059484015 293.88655201690887 515.1913258629595
    vertex -251.30385461629854 293.6463520484818 507.19132586296166
    vertex -250.72396059484015 293.88655201690887 507.19132586296166
  endloop
endfacet
facet normal 0.6494480483302004 -0.7604059656000167 -7.953444736000754e-17
  outer loop
    vertex -250.18878158462846 294.2145101361626 507.19132586296166
    vertex -249.71149546905215 294.6221509889162 515.1913258629595
    vertex -250.18878158462846 294.2145101361626 515.1913258629595
  endloop
endfacet
facet normal 0.6494480483302004 -0.7604059656000167 -7.953444736000754e-17
  outer loop
    vertex -249.71149546905215 294.6221509889162 515.1913258629595
    vertex -250.18878158462846 294.2145101361626 507.19132586296166
    vertex -249.71149546905215 294.6221509889162 507.19132586296166
  endloop
endfacet
facet normal -0.6494480483302004 -0.7604059656000167 7.953444736000754e-17
  outer loop
    vertex -255.36834971854452 294.6221509889162 507.19132586296166
    vertex -254.89106360296822 294.2145101361626 515.1913258629595
    vertex -255.36834971854452 294.6221509889162 515.1913258629595
  endloop
endfacet
facet normal -0.6494480483302004 -0.7604059656000167 7.953444736000754e-17
  outer loop
    vertex -254.89106360296822 294.2145101361626 515.1913258629595
    vertex -255.36834971854452 294.6221509889162 507.19132586296166
    vertex -254.89106360296822 294.2145101361626 507.19132586296166
  endloop
endfacet
facet normal 0.5224985647159499 -0.8526401643540916 -6.398761948384742e-17
  outer loop
    vertex -250.72396059484015 293.88655201690887 507.19132586296166
    vertex -250.18878158462846 294.2145101361626 515.1913258629595
    vertex -250.72396059484015 293.88655201690887 515.1913258629595
  endloop
endfacet
facet normal 0.5224985647159499 -0.8526401643540916 -6.398761948384742e-17
  outer loop
    vertex -250.18878158462846 294.2145101361626 515.1913258629595
    vertex -250.72396059484015 293.88655201690887 507.19132586296166
    vertex -250.18878158462846 294.2145101361626 507.19132586296166
  endloop
endfacet
facet normal 0.9723699203976861 -0.23344536385586614 -1.190809710602193e-16
  outer loop
    vertex -248.5891692314178 296.82484025350146 507.19132586296166
    vertex -248.73569652861772 296.2145101361626 515.1913258629595
    vertex -248.73569652861772 296.2145101361626 507.19132586296166
  endloop
endfacet
facet normal 0.9723699203976861 -0.23344536385586614 -1.190809710602193e-16
  outer loop
    vertex -248.73569652861772 296.2145101361626 515.1913258629595
    vertex -248.5891692314178 296.82484025350146 507.19132586296166
    vertex -248.5891692314178 296.82484025350146 515.1913258629595
  endloop
endfacet
facet normal 0.5224985647159499 0.8526401643540916 -6.398761948384742e-17
  outer loop
    vertex -250.18878158462846 300.6866460911622 507.19132586296166
    vertex -250.72396059484015 301.0146042104159 515.1913258629595
    vertex -250.18878158462846 300.6866460911622 515.1913258629595
  endloop
endfacet
facet normal 0.5224985647159499 0.8526401643540916 -6.398761948384742e-17
  outer loop
    vertex -250.72396059484015 301.0146042104159 515.1913258629595
    vertex -250.18878158462846 300.6866460911622 507.19132586296166
    vertex -250.72396059484015 301.0146042104159 507.19132586296166
  endloop
endfacet
facet normal 0.23344536385593415 0.9723699203976699 -2.8588811762195896e-17
  outer loop
    vertex -251.30385461629854 301.25480417884296 507.19132586296166
    vertex -251.91418473363743 301.4013314760429 515.1913258629595
    vertex -251.30385461629854 301.25480417884296 515.1913258629595
  endloop
endfacet
facet normal 0.23344536385593415 0.9723699203976699 -2.8588811762195896e-17
  outer loop
    vertex -251.91418473363743 301.4013314760429 515.1913258629595
    vertex -251.30385461629854 301.25480417884296 507.19132586296166
    vertex -251.91418473363743 301.4013314760429 507.19132586296166
  endloop
endfacet
facet normal -0.6494480483302004 0.7604059656000167 7.953444736000754e-17
  outer loop
    vertex -254.89106360296822 300.6866460911622 507.19132586296166
    vertex -255.36834971854452 300.27900523840856 515.1913258629595
    vertex -254.89106360296822 300.6866460911622 515.1913258629595
  endloop
endfacet
facet normal -0.6494480483302004 0.7604059656000167 7.953444736000754e-17
  outer loop
    vertex -255.36834971854452 300.27900523840856 515.1913258629595
    vertex -254.89106360296822 300.6866460911622 507.19132586296166
    vertex -255.36834971854452 300.27900523840856 507.19132586296166
  endloop
endfacet
facet normal -0.8526401643540916 0.5224985647159499 1.0441830481007115e-16
  outer loop
    vertex -255.77599057129814 299.80171912283225 515.1913258629595
    vertex -256.1039486905518 299.2665401126206 507.19132586296166
    vertex -256.1039486905518 299.2665401126206 515.1913258629595
  endloop
endfacet
facet normal -0.8526401643540916 0.5224985647159499 1.0441830481007115e-16
  outer loop
    vertex -256.1039486905518 299.2665401126206 507.19132586296166
    vertex -255.77599057129814 299.80171912283225 515.1913258629595
    vertex -255.77599057129814 299.80171912283225 507.19132586296166
  endloop
endfacet
facet normal -0.9969173337331295 0.07845909572782615 1.2208716217707907e-16
  outer loop
    vertex -256.49067595617885 298.0763159738233 515.1913258629595
    vertex -256.5399225937983 297.45057811366235 507.19132586296166
    vertex -256.5399225937983 297.45057811366235 515.1913258629595
  endloop
endfacet
facet normal -0.9969173337331295 0.07845909572782615 1.2208716217707907e-16
  outer loop
    vertex -256.5399225937983 297.45057811366235 507.19132586296166
    vertex -256.49067595617885 298.0763159738233 515.1913258629595
    vertex -256.49067595617885 298.0763159738233 507.19132586296166
  endloop
endfacet
facet normal 0.9914448613738169 -0.1305261922200027 -1.214169776012536e-16
  outer loop
    vertex -254.0854039158609 297.8646885858264 507.1913258629617
    vertex -254.1399225937983 297.45057811366235 515.1913258629595
    vertex -254.1399225937983 297.45057811366235 507.1913258629617
  endloop
endfacet
facet normal 0.9914448613738169 -0.1305261922200027 -1.214169776012536e-16
  outer loop
    vertex -254.1399225937983 297.45057811366235 515.1913258629595
    vertex -254.0854039158609 297.8646885858264 507.1913258629617
    vertex -254.0854039158609 297.8646885858264 515.1913258629595
  endloop
endfacet
facet normal 0.9914448613738169 0.1305261922200027 -1.214169776012536e-16
  outer loop
    vertex -254.1399225937983 297.45057811366235 507.1913258629617
    vertex -254.0854039158609 297.0364676414983 515.1913258629595
    vertex -254.0854039158609 297.0364676414983 507.1913258629617
  endloop
endfacet
facet normal 0.9914448613738169 0.1305261922200027 -1.214169776012536e-16
  outer loop
    vertex -254.0854039158609 297.0364676414983 515.1913258629595
    vertex -254.1399225937983 297.45057811366235 507.1913258629617
    vertex -254.1399225937983 297.45057811366235 515.1913258629595
  endloop
endfacet
facet normal 0.7933533402912176 -0.6087614290087435 -9.715776287805006e-17
  outer loop
    vertex -253.67129344369684 298.5819489635608 507.1913258629617
    vertex -253.92556323985346 298.25057811366236 515.1913258629595
    vertex -253.92556323985346 298.25057811366236 507.1913258629617
  endloop
endfacet
facet normal 0.7933533402912176 -0.6087614290087435 -9.715776287805006e-17
  outer loop
    vertex -253.92556323985346 298.25057811366236 515.1913258629595
    vertex -253.67129344369684 298.5819489635608 507.1913258629617
    vertex -253.67129344369684 298.5819489635608 515.1913258629595
  endloop
endfacet
facet normal 0.6087614290087096 -0.7933533402912437 -7.455177354798849e-17
  outer loop
    vertex -253.67129344369684 298.5819489635608 507.1913258629617
    vertex -253.33992259379832 298.83621875971744 515.1913258629595
    vertex -253.67129344369684 298.5819489635608 515.1913258629595
  endloop
endfacet
facet normal 0.6087614290087096 -0.7933533402912437 -7.455177354798849e-17
  outer loop
    vertex -253.33992259379832 298.83621875971744 515.1913258629595
    vertex -253.67129344369684 298.5819489635608 507.1913258629617
    vertex -253.33992259379832 298.83621875971744 507.1913258629617
  endloop
endfacet
facet normal 0.38268343236515584 -0.9238795325112594 -4.686520405327107e-17
  outer loop
    vertex -253.33992259379832 298.83621875971744 507.1913258629617
    vertex -252.95403306596236 298.9960594357249 515.1913258629595
    vertex -253.33992259379832 298.83621875971744 515.1913258629595
  endloop
endfacet
facet normal 0.38268343236515584 -0.9238795325112594 -4.686520405327107e-17
  outer loop
    vertex -252.95403306596236 298.9960594357249 515.1913258629595
    vertex -253.33992259379832 298.83621875971744 507.1913258629617
    vertex -252.95403306596236 298.9960594357249 507.1913258629617
  endloop
endfacet
facet normal 0.1305261922200097 -0.991444861373816 -1.5984848350712702e-17
  outer loop
    vertex -252.95403306596236 298.9960594357249 507.1913258629617
    vertex -252.5399225937983 299.05057811366237 515.1913258629595
    vertex -252.95403306596236 298.9960594357249 515.1913258629595
  endloop
endfacet
facet normal 0.1305261922200097 -0.991444861373816 -1.5984848350712702e-17
  outer loop
    vertex -252.5399225937983 299.05057811366237 515.1913258629595
    vertex -252.95403306596236 298.9960594357249 507.1913258629617
    vertex -252.5399225937983 299.05057811366237 507.1913258629617
  endloop
endfacet
facet normal 0.9238795325112811 -0.38268343236510366 -1.1314261122876934e-16
  outer loop
    vertex -248.73569652861772 296.2145101361626 507.19132586296166
    vertex -248.97589649704486 295.63461611470416 515.1913258629595
    vertex -248.97589649704486 295.63461611470416 507.19132586296166
  endloop
endfacet
facet normal 0.9238795325112811 -0.38268343236510366 -1.1314261122876934e-16
  outer loop
    vertex -248.97589649704486 295.63461611470416 515.1913258629595
    vertex -248.73569652861772 296.2145101361626 507.19132586296166
    vertex -248.73569652861772 296.2145101361626 515.1913258629595
  endloop
endfacet
facet normal 0.6494480483302004 0.7604059656000167 -7.953444736000754e-17
  outer loop
    vertex -249.71149546905215 300.27900523840856 507.19132586296166
    vertex -250.18878158462846 300.6866460911622 515.1913258629595
    vertex -249.71149546905215 300.27900523840856 515.1913258629595
  endloop
endfacet
facet normal 0.6494480483302004 0.7604059656000167 -7.953444736000754e-17
  outer loop
    vertex -250.18878158462846 300.6866460911622 515.1913258629595
    vertex -249.71149546905215 300.27900523840856 507.19132586296166
    vertex -250.18878158462846 300.6866460911622 507.19132586296166
  endloop
endfacet
facet normal -0.5224985647159499 0.8526401643540916 6.398761948384742e-17
  outer loop
    vertex -254.35588459275655 301.0146042104159 507.19132586296166
    vertex -254.89106360296822 300.6866460911622 515.1913258629595
    vertex -254.35588459275655 301.0146042104159 515.1913258629595
  endloop
endfacet
facet normal -0.5224985647159499 0.8526401643540916 6.398761948384742e-17
  outer loop
    vertex -254.89106360296822 300.6866460911622 515.1913258629595
    vertex -254.35588459275655 301.0146042104159 507.19132586296166
    vertex -254.89106360296822 300.6866460911622 507.19132586296166
  endloop
endfacet
facet normal 0.8526401643540916 -0.5224985647159499 -1.0441830481007115e-16
  outer loop
    vertex -248.97589649704486 295.63461611470416 507.19132586296166
    vertex -249.30385461629857 295.09943710449244 515.1913258629595
    vertex -249.30385461629857 295.09943710449244 507.19132586296166
  endloop
endfacet
facet normal 0.8526401643540916 -0.5224985647159499 -1.0441830481007115e-16
  outer loop
    vertex -249.30385461629857 295.09943710449244 515.1913258629595
    vertex -248.97589649704486 295.63461611470416 507.19132586296166
    vertex -248.97589649704486 295.63461611470416 515.1913258629595
  endloop
endfacet
facet normal 0.7604059656000167 0.6494480483302004 -9.312287318246128e-17
  outer loop
    vertex -249.71149546905215 300.27900523840856 507.19132586296166
    vertex -249.30385461629857 299.80171912283225 515.1913258629595
    vertex -249.30385461629857 299.80171912283225 507.19132586296166
  endloop
endfacet
facet normal 0.7604059656000167 0.6494480483302004 -9.312287318246128e-17
  outer loop
    vertex -249.30385461629857 299.80171912283225 515.1913258629595
    vertex -249.71149546905215 300.27900523840856 507.19132586296166
    vertex -249.71149546905215 300.27900523840856 515.1913258629595
  endloop
endfacet
facet normal 0.9969173337331267 -0.07845909572786187 -1.2208716217707872e-16
  outer loop
    vertex -248.53992259379837 297.45057811366235 507.19132586296166
    vertex -248.5891692314178 296.82484025350146 515.1913258629595
    vertex -248.5891692314178 296.82484025350146 507.19132586296166
  endloop
endfacet
facet normal 0.9969173337331267 -0.07845909572786187 -1.2208716217707872e-16
  outer loop
    vertex -248.5891692314178 296.82484025350146 515.1913258629595
    vertex -248.53992259379837 297.45057811366235 507.19132586296166
    vertex -248.53992259379834 297.45057811366235 515.1913258629595
  endloop
endfacet
facet normal 0.9238795325112917 0.3826834323650783 -1.1314261122877064e-16
  outer loop
    vertex -248.97589649704486 299.2665401126206 507.19132586296166
    vertex -248.73569652861772 298.6866460911621 515.1913258629595
    vertex -248.73569652861772 298.6866460911621 507.19132586296166
  endloop
endfacet
facet normal 0.9238795325112917 0.3826834323650783 -1.1314261122877064e-16
  outer loop
    vertex -248.73569652861772 298.6866460911621 515.1913258629595
    vertex -248.97589649704486 299.2665401126206 507.19132586296166
    vertex -248.97589649704486 299.2665401126206 515.1913258629595
  endloop
endfacet
facet normal 0.7604059656000167 -0.6494480483302004 -9.312287318246128e-17
  outer loop
    vertex -249.30385461629857 295.09943710449244 507.19132586296166
    vertex -249.71149546905215 294.6221509889162 515.1913258629595
    vertex -249.71149546905215 294.6221509889162 507.19132586296166
  endloop
endfacet
facet normal 0.7604059656000167 -0.6494480483302004 -9.312287318246128e-17
  outer loop
    vertex -249.71149546905215 294.6221509889162 515.1913258629595
    vertex -249.30385461629857 295.09943710449244 507.19132586296166
    vertex -249.30385461629857 295.09943710449244 515.1913258629595
  endloop
endfacet
facet normal 0.8526401643540916 0.5224985647159499 -1.0441830481007115e-16
  outer loop
    vertex -249.30385461629857 299.80171912283225 507.19132586296166
    vertex -248.97589649704486 299.2665401126206 515.1913258629595
    vertex -248.97589649704486 299.2665401126206 507.19132586296166
  endloop
endfacet
facet normal 0.8526401643540916 0.5224985647159499 -1.0441830481007115e-16
  outer loop
    vertex -248.97589649704486 299.2665401126206 515.1913258629595
    vertex -249.30385461629857 299.80171912283225 507.19132586296166
    vertex -249.30385461629857 299.80171912283225 515.1913258629595
  endloop
endfacet
facet normal 0.3826834323650423 0.9238795325113066 -4.686520405325717e-17
  outer loop
    vertex -250.72396059484015 301.0146042104159 507.19132586296166
    vertex -251.30385461629854 301.25480417884296 515.1913258629595
    vertex -250.72396059484015 301.0146042104159 515.1913258629595
  endloop
endfacet
facet normal 0.3826834323650423 0.9238795325113066 -4.686520405325717e-17
  outer loop
    vertex -251.30385461629854 301.25480417884296 515.1913258629595
    vertex -250.72396059484015 301.0146042104159 507.19132586296166
    vertex -251.30385461629854 301.25480417884296 507.19132586296166
  endloop
endfacet
facet normal -0.07845909572782615 0.9969173337331295 9.608468044707807e-18
  outer loop
    vertex -252.5399225937983 301.45057811366235 507.19132586296166
    vertex -253.1656604539593 301.4013314760429 515.1913258629595
    vertex -252.5399225937983 301.45057811366235 515.1913258629595
  endloop
endfacet
facet normal -0.07845909572782615 0.9969173337331295 9.608468044707807e-18
  outer loop
    vertex -253.1656604539593 301.4013314760429 515.1913258629595
    vertex -252.5399225937983 301.45057811366235 507.19132586296166
    vertex -253.1656604539593 301.4013314760429 507.19132586296166
  endloop
endfacet
facet normal -0.2334453638559423 0.9723699203976679 2.8588811762196894e-17
  outer loop
    vertex -253.1656604539593 301.4013314760429 507.19132586296166
    vertex -253.77599057129814 301.25480417884296 515.1913258629595
    vertex -253.1656604539593 301.4013314760429 515.1913258629595
  endloop
endfacet
facet normal -0.2334453638559423 0.9723699203976679 2.8588811762196894e-17
  outer loop
    vertex -253.77599057129814 301.25480417884296 515.1913258629595
    vertex -253.1656604539593 301.4013314760429 507.19132586296166
    vertex -253.77599057129814 301.25480417884296 507.19132586296166
  endloop
endfacet
facet normal -0.38268343236502966 0.9238795325113118 4.686520405325562e-17
  outer loop
    vertex -253.77599057129814 301.25480417884296 507.19132586296166
    vertex -254.35588459275655 301.0146042104159 515.1913258629595
    vertex -253.77599057129814 301.25480417884296 515.1913258629595
  endloop
endfacet
facet normal -0.38268343236502966 0.9238795325113118 4.686520405325562e-17
  outer loop
    vertex -254.35588459275655 301.0146042104159 515.1913258629595
    vertex -253.77599057129814 301.25480417884296 507.19132586296166
    vertex -254.35588459275655 301.0146042104159 507.19132586296166
  endloop
endfacet
facet normal -0.7604059656000167 0.6494480483302004 9.312287318246128e-17
  outer loop
    vertex -255.36834971854452 300.27900523840856 515.1913258629595
    vertex -255.77599057129814 299.80171912283225 507.19132586296166
    vertex -255.77599057129814 299.80171912283225 515.1913258629595
  endloop
endfacet
facet normal -0.7604059656000167 0.6494480483302004 9.312287318246128e-17
  outer loop
    vertex -255.77599057129814 299.80171912283225 507.19132586296166
    vertex -255.36834971854452 300.27900523840856 515.1913258629595
    vertex -255.36834971854452 300.27900523840856 507.19132586296166
  endloop
endfacet
facet normal -0.9723699203976779 0.23344536385590012 1.1908097106021829e-16
  outer loop
    vertex -256.34414865897895 298.6866460911622 515.1913258629595
    vertex -256.49067595617885 298.0763159738233 507.19132586296166
    vertex -256.49067595617885 298.0763159738233 515.1913258629595
  endloop
endfacet
facet normal -0.9723699203976779 0.23344536385590012 1.1908097106021829e-16
  outer loop
    vertex -256.49067595617885 298.0763159738233 507.19132586296166
    vertex -256.34414865897895 298.6866460911622 515.1913258629595
    vertex -256.34414865897895 298.6866460911622 507.19132586296166
  endloop
endfacet
facet normal 0.9238795325112708 -0.3826834323651289 -1.1314261122876808e-16
  outer loop
    vertex -253.92556323985346 298.25057811366236 507.1913258629617
    vertex -254.0854039158609 297.8646885858264 515.1913258629595
    vertex -254.0854039158609 297.8646885858264 507.1913258629617
  endloop
endfacet
facet normal 0.9238795325112708 -0.3826834323651289 -1.1314261122876808e-16
  outer loop
    vertex -254.0854039158609 297.8646885858264 515.1913258629595
    vertex -253.92556323985346 298.25057811366236 507.1913258629617
    vertex -253.92556323985346 298.25057811366236 515.1913258629595
  endloop
endfacet
facet normal 0.9723699203976822 0.23344536385588247 -1.1908097106021883e-16
  outer loop
    vertex -248.73569652861772 298.6866460911621 507.19132586296166
    vertex -248.5891692314178 298.0763159738233 515.1913258629595
    vertex -248.5891692314178 298.0763159738233 507.19132586296166
  endloop
endfacet
facet normal 0.9723699203976822 0.23344536385588247 -1.1908097106021883e-16
  outer loop
    vertex -248.5891692314178 298.0763159738233 515.1913258629595
    vertex -248.73569652861772 298.6866460911621 507.19132586296166
    vertex -248.73569652861772 298.6866460911621 515.1913258629595
  endloop
endfacet
facet normal 0.07845909572782896 0.9969173337331293 -9.60846804470815e-18
  outer loop
    vertex -251.91418473363743 301.4013314760429 507.19132586296166
    vertex -252.5399225937983 301.45057811366235 515.1913258629595
    vertex -251.91418473363743 301.4013314760429 515.1913258629595
  endloop
endfacet
facet normal 0.07845909572782896 0.9969173337331293 -9.60846804470815e-18
  outer loop
    vertex -252.5399225937983 301.45057811366235 515.1913258629595
    vertex -251.91418473363743 301.4013314760429 507.19132586296166
    vertex -252.5399225937983 301.45057811366235 507.19132586296166
  endloop
endfacet
facet normal -0.9238795325112937 0.3826834323650729 1.131426112287709e-16
  outer loop
    vertex -256.1039486905518 299.2665401126206 515.1913258629595
    vertex -256.34414865897895 298.6866460911622 507.19132586296166
    vertex -256.34414865897895 298.6866460911622 515.1913258629595
  endloop
endfacet
facet normal -0.9238795325112937 0.3826834323650729 1.131426112287709e-16
  outer loop
    vertex -256.34414865897895 298.6866460911622 507.19132586296166
    vertex -256.1039486905518 299.2665401126206 515.1913258629595
    vertex -256.1039486905518 299.2665401126206 507.19132586296166
  endloop
endfacet
facet normal 0.9969173337331267 0.07845909572786187 -1.2208716217707872e-16
  outer loop
    vertex -248.5891692314178 298.0763159738233 507.19132586296166
    vertex -248.53992259379834 297.45057811366235 515.1913258629595
    vertex -248.53992259379837 297.45057811366235 507.19132586296166
  endloop
endfacet
facet normal 0.9969173337331267 0.07845909572786187 -1.2208716217707872e-16
  outer loop
    vertex -248.53992259379834 297.45057811366235 515.1913258629595
    vertex -248.5891692314178 298.0763159738233 507.19132586296166
    vertex -248.5891692314178 298.0763159738233 515.1913258629595
  endloop
endfacet
facet normal 0.9238795325112708 0.3826834323651289 -1.1314261122876808e-16
  outer loop
    vertex -254.0854039158609 297.0364676414983 507.1913258629617
    vertex -253.92556323985346 296.6505781136624 515.1913258629595
    vertex -253.92556323985346 296.6505781136624 507.1913258629617
  endloop
endfacet
facet normal 0.9238795325112708 0.3826834323651289 -1.1314261122876808e-16
  outer loop
    vertex -253.92556323985346 296.6505781136624 515.1913258629595
    vertex -254.0854039158609 297.0364676414983 507.1913258629617
    vertex -254.0854039158609 297.0364676414983 515.1913258629595
  endloop
endfacet
facet normal -0.38268343236515584 -0.9238795325112594 4.686520405327107e-17
  outer loop
    vertex -252.1258121216343 298.9960594357249 507.1913258629617
    vertex -251.73992259379833 298.83621875971744 515.1913258629595
    vertex -252.1258121216343 298.9960594357249 515.1913258629595
  endloop
endfacet
facet normal -0.38268343236515584 -0.9238795325112594 4.686520405327107e-17
  outer loop
    vertex -251.73992259379833 298.83621875971744 515.1913258629595
    vertex -252.1258121216343 298.9960594357249 507.1913258629617
    vertex -251.73992259379833 298.83621875971744 507.1913258629617
  endloop
endfacet
facet normal -0.6087614290087096 0.7933533402912437 7.455177354798849e-17
  outer loop
    vertex -251.4085517438999 296.3192072637639 507.1913258629617
    vertex -251.73992259379833 296.0649374676073 515.1913258629595
    vertex -251.4085517438999 296.3192072637639 515.1913258629595
  endloop
endfacet
facet normal -0.6087614290087096 0.7933533402912437 7.455177354798849e-17
  outer loop
    vertex -251.73992259379833 296.0649374676073 515.1913258629595
    vertex -251.4085517438999 296.3192072637639 507.1913258629617
    vertex -251.73992259379833 296.0649374676073 507.1913258629617
  endloop
endfacet
facet normal -0.99144486137381 -0.1305261922200558 1.2141697760125277e-16
  outer loop
    vertex -250.99444127173584 297.8646885858264 515.1913258629595
    vertex -250.93992259379831 297.45057811366235 507.1913258629617
    vertex -250.93992259379831 297.45057811366235 515.1913258629595
  endloop
endfacet
facet normal -0.99144486137381 -0.1305261922200558 1.2141697760125277e-16
  outer loop
    vertex -250.93992259379831 297.45057811366235 507.1913258629617
    vertex -250.99444127173584 297.8646885858264 515.1913258629595
    vertex -250.99444127173584 297.8646885858264 507.1913258629617
  endloop
endfacet
facet normal 0.38268343236515584 0.9238795325112594 -4.686520405327107e-17
  outer loop
    vertex -252.95403306596236 295.9050967915998 507.1913258629617
    vertex -253.33992259379832 296.0649374676073 515.1913258629595
    vertex -252.95403306596236 295.9050967915998 515.1913258629595
  endloop
endfacet
facet normal 0.38268343236515584 0.9238795325112594 -4.686520405327107e-17
  outer loop
    vertex -253.33992259379832 296.0649374676073 515.1913258629595
    vertex -252.95403306596236 295.9050967915998 507.1913258629617
    vertex -253.33992259379832 296.0649374676073 507.1913258629617
  endloop
endfacet
facet normal -0.9238795325112898 0.38268343236508284 1.1314261122877042e-16
  outer loop
    vertex -250.99444127173584 297.0364676414983 515.1913258629595
    vertex -251.15428194774324 296.6505781136624 507.1913258629617
    vertex -251.15428194774324 296.6505781136624 515.1913258629595
  endloop
endfacet
facet normal -0.9238795325112898 0.38268343236508284 1.1314261122877042e-16
  outer loop
    vertex -251.15428194774324 296.6505781136624 507.1913258629617
    vertex -250.99444127173584 297.0364676414983 515.1913258629595
    vertex -250.99444127173584 297.0364676414983 507.1913258629617
  endloop
endfacet
facet normal 0.7933533402912176 0.6087614290087435 -9.715776287805006e-17
  outer loop
    vertex -253.92556323985346 296.6505781136624 507.1913258629617
    vertex -253.67129344369684 296.3192072637639 515.1913258629595
    vertex -253.67129344369684 296.3192072637639 507.1913258629617
  endloop
endfacet
facet normal 0.7933533402912176 0.6087614290087435 -9.715776287805006e-17
  outer loop
    vertex -253.67129344369684 296.3192072637639 515.1913258629595
    vertex -253.92556323985346 296.6505781136624 507.1913258629617
    vertex -253.92556323985346 296.6505781136624 515.1913258629595
  endloop
endfacet
facet normal -0.9238795325112898 -0.38268343236508284 1.1314261122877042e-16
  outer loop
    vertex -251.15428194774324 298.25057811366236 515.1913258629595
    vertex -250.99444127173584 297.8646885858264 507.1913258629617
    vertex -250.99444127173584 297.8646885858264 515.1913258629595
  endloop
endfacet
facet normal -0.9238795325112898 -0.38268343236508284 1.1314261122877042e-16
  outer loop
    vertex -250.99444127173584 297.8646885858264 507.1913258629617
    vertex -251.15428194774324 298.25057811366236 515.1913258629595
    vertex -251.15428194774324 298.25057811366236 507.1913258629617
  endloop
endfacet
facet normal 0.1305261922200097 0.991444861373816 -1.5984848350712702e-17
  outer loop
    vertex -252.5399225937983 295.8505781136624 507.1913258629617
    vertex -252.95403306596236 295.9050967915998 515.1913258629595
    vertex -252.5399225937983 295.8505781136624 515.1913258629595
  endloop
endfacet
facet normal 0.1305261922200097 0.991444861373816 -1.5984848350712702e-17
  outer loop
    vertex -252.95403306596236 295.9050967915998 515.1913258629595
    vertex -252.5399225937983 295.8505781136624 507.1913258629617
    vertex -252.95403306596236 295.9050967915998 507.1913258629617
  endloop
endfacet
facet normal -0.99144486137381 0.1305261922200558 1.2141697760125277e-16
  outer loop
    vertex -250.93992259379831 297.45057811366235 515.1913258629595
    vertex -250.99444127173584 297.0364676414983 507.1913258629617
    vertex -250.99444127173584 297.0364676414983 515.1913258629595
  endloop
endfacet
facet normal -0.99144486137381 0.1305261922200558 1.2141697760125277e-16
  outer loop
    vertex -250.99444127173584 297.0364676414983 507.1913258629617
    vertex -250.93992259379831 297.45057811366235 515.1913258629595
    vertex -250.93992259379831 297.45057811366235 507.1913258629617
  endloop
endfacet
facet normal -0.1305261922200097 -0.991444861373816 1.5984848350712702e-17
  outer loop
    vertex -252.5399225937983 299.05057811366237 507.1913258629617
    vertex -252.1258121216343 298.9960594357249 515.1913258629595
    vertex -252.5399225937983 299.05057811366237 515.1913258629595
  endloop
endfacet
facet normal -0.1305261922200097 -0.991444861373816 1.5984848350712702e-17
  outer loop
    vertex -252.1258121216343 298.9960594357249 515.1913258629595
    vertex -252.5399225937983 299.05057811366237 507.1913258629617
    vertex -252.1258121216343 298.9960594357249 507.1913258629617
  endloop
endfacet
facet normal -0.7933533402912176 0.6087614290087435 9.715776287805006e-17
  outer loop
    vertex -251.15428194774324 296.6505781136624 515.1913258629595
    vertex -251.4085517438999 296.3192072637639 507.1913258629617
    vertex -251.4085517438999 296.3192072637639 515.1913258629595
  endloop
endfacet
facet normal -0.7933533402912176 0.6087614290087435 9.715776287805006e-17
  outer loop
    vertex -251.4085517438999 296.3192072637639 507.1913258629617
    vertex -251.15428194774324 296.6505781136624 515.1913258629595
    vertex -251.15428194774324 296.6505781136624 507.1913258629617
  endloop
endfacet
facet normal 0.6087614290087096 0.7933533402912437 -7.455177354798849e-17
  outer loop
    vertex -253.33992259379832 296.0649374676073 507.1913258629617
    vertex -253.67129344369684 296.3192072637639 515.1913258629595
    vertex -253.33992259379832 296.0649374676073 515.1913258629595
  endloop
endfacet
facet normal 0.6087614290087096 0.7933533402912437 -7.455177354798849e-17
  outer loop
    vertex -253.67129344369684 296.3192072637639 515.1913258629595
    vertex -253.33992259379832 296.0649374676073 507.1913258629617
    vertex -253.67129344369684 296.3192072637639 507.1913258629617
  endloop
endfacet
facet normal -0.7933533402912176 -0.6087614290087435 9.715776287805006e-17
  outer loop
    vertex -251.4085517438999 298.5819489635608 515.1913258629595
    vertex -251.15428194774324 298.25057811366236 507.1913258629617
    vertex -251.15428194774324 298.25057811366236 515.1913258629595
  endloop
endfacet
facet normal -0.7933533402912176 -0.6087614290087435 9.715776287805006e-17
  outer loop
    vertex -251.15428194774324 298.25057811366236 507.1913258629617
    vertex -251.4085517438999 298.5819489635608 515.1913258629595
    vertex -251.4085517438999 298.5819489635608 507.1913258629617
  endloop
endfacet
facet normal -0.1305261922200097 0.991444861373816 1.5984848350712702e-17
  outer loop
    vertex -252.1258121216343 295.9050967915998 507.1913258629617
    vertex -252.5399225937983 295.8505781136624 515.1913258629595
    vertex -252.1258121216343 295.9050967915998 515.1913258629595
  endloop
endfacet
facet normal -0.1305261922200097 0.991444861373816 1.5984848350712702e-17
  outer loop
    vertex -252.5399225937983 295.8505781136624 515.1913258629595
    vertex -252.1258121216343 295.9050967915998 507.1913258629617
    vertex -252.5399225937983 295.8505781136624 507.1913258629617
  endloop
endfacet
facet normal -0.6087614290087096 -0.7933533402912437 7.455177354798849e-17
  outer loop
    vertex -251.73992259379833 298.83621875971744 507.1913258629617
    vertex -251.4085517438999 298.5819489635608 515.1913258629595
    vertex -251.73992259379833 298.83621875971744 515.1913258629595
  endloop
endfacet
facet normal -0.6087614290087096 -0.7933533402912437 7.455177354798849e-17
  outer loop
    vertex -251.4085517438999 298.5819489635608 515.1913258629595
    vertex -251.73992259379833 298.83621875971744 507.1913258629617
    vertex -251.4085517438999 298.5819489635608 507.1913258629617
  endloop
endfacet
facet normal -0.38268343236515584 0.9238795325112594 4.686520405327107e-17
  outer loop
    vertex -251.73992259379833 296.0649374676073 507.1913258629617
    vertex -252.1258121216343 295.9050967915998 515.1913258629595
    vertex -251.73992259379833 296.0649374676073 515.1913258629595
  endloop
endfacet
facet normal -0.38268343236515584 0.9238795325112594 4.686520405327107e-17
  outer loop
    vertex -252.1258121216343 295.9050967915998 515.1913258629595
    vertex -251.73992259379833 296.0649374676073 507.1913258629617
    vertex -252.1258121216343 295.9050967915998 507.1913258629617
  endloop
endfacet
endsolid 3DskrivarenV3
